<mxfile host="Electron" agent="Mozilla/5.0 (X11; Linux x86_64) AppleWebKit/537.36 (KHTML, like Gecko) draw.io/28.1.2 Chrome/138.0.7204.243 Electron/37.4.0 Safari/537.36" version="28.1.2">
  <diagram name="Page-1" id="vNz4AdegE8J5pTQr-Vt8">
    <mxGraphModel dx="1426" dy="875" grid="1" gridSize="10" guides="1" tooltips="1" connect="1" arrows="1" fold="1" page="1" pageScale="1" pageWidth="827" pageHeight="1169" math="0" shadow="0">
      <root>
        <mxCell id="0" />
        <mxCell id="1" parent="0" />
        <mxCell id="kou2hlCwhqq52EsNGbb5-1" value="&lt;font style=&quot;font-size: 14px;&quot;&gt;Current robot positions&lt;/font&gt;&lt;div&gt;&lt;font style=&quot;font-size: 14px;&quot;&gt;&amp;nbsp;(x, y, theta)&lt;/font&gt;&lt;/div&gt;" style="verticalLabelPosition=bottom;verticalAlign=top;html=1;strokeWidth=2;shape=mxgraph.arrows2.arrow;dy=0.72;dx=70;notch=0;rotation=90;" parent="1" vertex="1">
          <mxGeometry x="10" y="60" width="150" height="55" as="geometry" />
        </mxCell>
        <mxCell id="kou2hlCwhqq52EsNGbb5-2" value="&lt;font style=&quot;font-size: 14px;&quot;&gt;Global occuoabcy grid&lt;/font&gt;&lt;div&gt;&lt;font style=&quot;font-size: 14px;&quot;&gt;(600. 600)&lt;/font&gt;&lt;/div&gt;" style="verticalLabelPosition=bottom;verticalAlign=top;html=1;strokeWidth=2;shape=mxgraph.arrows2.arrow;dy=0.72;dx=70;notch=0;rotation=90;" parent="1" vertex="1">
          <mxGeometry x="120" y="60" width="150" height="55" as="geometry" />
        </mxCell>
        <mxCell id="kou2hlCwhqq52EsNGbb5-3" value="&lt;font style=&quot;font-size: 14px;&quot;&gt;Points of interest&lt;/font&gt;&lt;div&gt;&lt;font style=&quot;font-size: 14px;&quot;&gt;(manual entry frontiers)&lt;/font&gt;&lt;/div&gt;" style="verticalLabelPosition=bottom;verticalAlign=top;html=1;strokeWidth=2;shape=mxgraph.arrows2.arrow;dy=0.72;dx=70;notch=0;rotation=90;" parent="1" vertex="1">
          <mxGeometry x="339" y="60" width="150" height="55" as="geometry" />
        </mxCell>
        <mxCell id="kou2hlCwhqq52EsNGbb5-6" value="&lt;font style=&quot;font-size: 15px;&quot;&gt;&lt;b style=&quot;&quot;&gt;Reinforcement learning network&lt;/b&gt;&lt;/font&gt;&lt;div&gt;&lt;font style=&quot;font-size: 15px;&quot;&gt;- hardcoded algorithm for rewards based&amp;nbsp;&lt;/font&gt;&lt;span style=&quot;font-size: 15px; background-color: transparent; color: light-dark(rgb(0, 0, 0), rgb(255, 255, 255));&quot;&gt;on&amp;nbsp;&lt;/span&gt;&lt;/div&gt;&lt;div&gt;&lt;span style=&quot;font-size: 15px; background-color: transparent; color: light-dark(rgb(0, 0, 0), rgb(255, 255, 255));&quot;&gt;increase of explored&amp;nbsp;&lt;/span&gt;&lt;span style=&quot;background-color: transparent; color: light-dark(rgb(0, 0, 0), rgb(255, 255, 255)); font-size: 15px;&quot;&gt;region of the map&lt;/span&gt;&lt;/div&gt;&lt;div style=&quot;&quot;&gt;&lt;font style=&quot;font-size: 15px;&quot;&gt;- dataset would be loaded from pickle format,&amp;nbsp;&lt;/font&gt;&lt;/div&gt;&lt;div style=&quot;&quot;&gt;&lt;font style=&quot;font-size: 15px;&quot;&gt;containing map, metadata and odom data&amp;nbsp;&lt;/font&gt;&lt;/div&gt;&lt;div style=&quot;&quot;&gt;&lt;font style=&quot;font-size: 15px;&quot;&gt;for given timestamp&lt;/font&gt;&lt;span style=&quot;font-size: 15px; background-color: transparent; color: light-dark(rgb(0, 0, 0), rgb(255, 255, 255));&quot;&gt;&amp;nbsp;&lt;/span&gt;&lt;/div&gt;" style="text;html=1;align=left;verticalAlign=middle;resizable=0;points=[];autosize=1;strokeColor=none;fillColor=none;" parent="1" vertex="1">
          <mxGeometry x="480" y="10" width="330" height="120" as="geometry" />
        </mxCell>
        <mxCell id="2QFAaBAab7-xi8bqY__Z-1" value="&lt;font style=&quot;font-size: 14px;&quot;&gt;Reward algorithm based on explored cells&lt;/font&gt;" style="shape=process;whiteSpace=wrap;html=1;backgroundOutline=1;" vertex="1" parent="1">
          <mxGeometry x="586" y="187" width="160" height="60" as="geometry" />
        </mxCell>
        <mxCell id="2QFAaBAab7-xi8bqY__Z-2" value="&lt;font style=&quot;font-size: 14px;&quot;&gt;Local&lt;/font&gt;&lt;span style=&quot;font-size: 14px; background-color: transparent; color: light-dark(rgb(0, 0, 0), rgb(255, 255, 255));&quot;&gt;&amp;nbsp;occuoabcy grid&lt;/span&gt;&lt;div&gt;&lt;span style=&quot;font-size: 14px; background-color: transparent; color: light-dark(rgb(0, 0, 0), rgb(255, 255, 255));&quot;&gt;(300, 300)&lt;/span&gt;&lt;/div&gt;" style="verticalLabelPosition=bottom;verticalAlign=top;html=1;strokeWidth=2;shape=mxgraph.arrows2.arrow;dy=0.72;dx=70;notch=0;rotation=90;" vertex="1" parent="1">
          <mxGeometry x="230" y="60" width="150" height="55" as="geometry" />
        </mxCell>
        <mxCell id="2QFAaBAab7-xi8bqY__Z-3" value="&lt;font style=&quot;font-size: 14px;&quot;&gt;Targets for robots&lt;/font&gt;&lt;div&gt;&lt;font style=&quot;font-size: 14px;&quot;&gt;(x,y, theta)&lt;/font&gt;&lt;/div&gt;" style="strokeWidth=2;html=1;shape=mxgraph.flowchart.stored_data;whiteSpace=wrap;" vertex="1" parent="1">
          <mxGeometry x="82" y="460" width="110" height="70" as="geometry" />
        </mxCell>
        <mxCell id="2QFAaBAab7-xi8bqY__Z-4" value="&lt;span style=&quot;font-size: 14px;&quot;&gt;Merged globall occupancy grid&lt;/span&gt;" style="strokeWidth=2;html=1;shape=mxgraph.flowchart.stored_data;whiteSpace=wrap;" vertex="1" parent="1">
          <mxGeometry x="217" y="460" width="130" height="70" as="geometry" />
        </mxCell>
        <mxCell id="2QFAaBAab7-xi8bqY__Z-5" value="&lt;span style=&quot;font-size: 14px;&quot;&gt;Merge confidence scores&lt;/span&gt;" style="strokeWidth=2;html=1;shape=mxgraph.flowchart.stored_data;whiteSpace=wrap;" vertex="1" parent="1">
          <mxGeometry x="370" y="460" width="110" height="70" as="geometry" />
        </mxCell>
        <mxCell id="2QFAaBAab7-xi8bqY__Z-9" style="edgeStyle=none;rounded=0;orthogonalLoop=1;jettySize=auto;html=1;exitX=0.25;exitY=1;exitDx=0;exitDy=0;entryX=0.5;entryY=0;entryDx=0;entryDy=0;" edge="1" parent="1" source="2QFAaBAab7-xi8bqY__Z-6" target="2QFAaBAab7-xi8bqY__Z-8">
          <mxGeometry relative="1" as="geometry" />
        </mxCell>
        <mxCell id="2QFAaBAab7-xi8bqY__Z-6" value="&lt;font style=&quot;font-size: 16px;&quot;&gt;Neural network with reinforcement learning&lt;/font&gt;" style="rounded=0;whiteSpace=wrap;html=1;fontStyle=1" vertex="1" parent="1">
          <mxGeometry x="30" y="162" width="430" height="110" as="geometry" />
        </mxCell>
        <mxCell id="2QFAaBAab7-xi8bqY__Z-7" value="" style="shape=flexArrow;endArrow=classic;startArrow=classic;html=1;rounded=0;exitX=1;exitY=0.5;exitDx=0;exitDy=0;entryX=0;entryY=0.5;entryDx=0;entryDy=0;" edge="1" parent="1" source="2QFAaBAab7-xi8bqY__Z-6" target="2QFAaBAab7-xi8bqY__Z-1">
          <mxGeometry width="100" height="100" relative="1" as="geometry">
            <mxPoint x="580" y="470" as="sourcePoint" />
            <mxPoint x="680" y="370" as="targetPoint" />
          </mxGeometry>
        </mxCell>
        <mxCell id="2QFAaBAab7-xi8bqY__Z-8" value="&lt;font style=&quot;font-size: 14px;&quot;&gt;Transform targets from global grid into local coordinate system&lt;/font&gt;" style="rounded=0;whiteSpace=wrap;html=1;" vertex="1" parent="1">
          <mxGeometry x="57" y="320" width="160" height="80" as="geometry" />
        </mxCell>
        <mxCell id="2QFAaBAab7-xi8bqY__Z-10" style="edgeStyle=none;rounded=0;orthogonalLoop=1;jettySize=auto;html=1;entryX=0.5;entryY=0;entryDx=0;entryDy=0;entryPerimeter=0;" edge="1" parent="1" source="2QFAaBAab7-xi8bqY__Z-8" target="2QFAaBAab7-xi8bqY__Z-3">
          <mxGeometry relative="1" as="geometry" />
        </mxCell>
        <mxCell id="2QFAaBAab7-xi8bqY__Z-11" style="edgeStyle=none;rounded=0;orthogonalLoop=1;jettySize=auto;html=1;exitX=0.5;exitY=1;exitDx=0;exitDy=0;entryX=0.5;entryY=0;entryDx=0;entryDy=0;entryPerimeter=0;" edge="1" parent="1" source="2QFAaBAab7-xi8bqY__Z-6" target="2QFAaBAab7-xi8bqY__Z-4">
          <mxGeometry relative="1" as="geometry">
            <Array as="points">
              <mxPoint x="245" y="360" />
              <mxPoint x="282" y="360" />
            </Array>
          </mxGeometry>
        </mxCell>
        <mxCell id="2QFAaBAab7-xi8bqY__Z-12" style="edgeStyle=none;rounded=0;orthogonalLoop=1;jettySize=auto;html=1;exitX=0.75;exitY=1;exitDx=0;exitDy=0;entryX=0.564;entryY=0.043;entryDx=0;entryDy=0;entryPerimeter=0;" edge="1" parent="1" source="2QFAaBAab7-xi8bqY__Z-6" target="2QFAaBAab7-xi8bqY__Z-5">
          <mxGeometry relative="1" as="geometry">
            <Array as="points">
              <mxPoint x="353" y="360" />
              <mxPoint x="432" y="360" />
            </Array>
          </mxGeometry>
        </mxCell>
      </root>
    </mxGraphModel>
  </diagram>
</mxfile>
